<?xml version="1.0" encoding="iso-8859-1"?>
<!-- Generator: Adobe Illustrator 19.0.0, SVG Export Plug-In . SVG Version: 6.00 Build 0)  -->
<svg version="1.1" id="Layer_1" xmlns="http://www.w3.org/2000/svg" xmlns:xlink="http://www.w3.org/1999/xlink" x="0px" y="0px"
	 viewBox="0 0 512 512" style="enable-background:new 0 0 512 512;" xml:space="preserve">
<path style="fill:#005A95;" d="M256,0C166.783,0,94.199,72.583,94.199,161.801V350.2C94.199,439.417,166.783,512,256,512
	s161.801-72.583,161.801-161.801V161.801C417.801,72.583,345.217,0,256,0z"/>
<path style="fill:#31AAEF;" d="M94.199,161.801V350.2C94.199,439.417,166.783,512,256,512V0C166.783,0,94.199,72.583,94.199,161.801
	z"/>
<path style="fill:#A6D9F3;" d="M255.997,438.237c-2.203,0-4.423-0.43-6.534-1.315c-6.287-2.634-10.379-8.785-10.379-15.601V297.633
	l-54.057,54.057c-6.605,6.606-17.317,6.606-23.923,0c-6.606-6.606-6.606-17.317,0-23.923l70.973-70.973l-70.973-70.973
	c-6.606-6.606-6.606-17.317,0-23.923c6.605-6.605,17.317-6.606,23.923,0l54.057,54.057V92.267c0-6.817,4.092-12.968,10.379-15.601
	c6.285-2.636,13.541-1.238,18.4,3.543l82.934,81.593c3.216,3.163,5.034,7.479,5.052,11.99c0.018,4.511-1.765,8.84-4.955,12.03
	l-70.973,70.973l70.973,70.973c3.189,3.189,4.973,7.52,4.955,12.03c-0.018,4.51-1.837,8.827-5.052,11.99l-82.934,81.593
	C264.636,436.554,260.351,438.237,255.997,438.237z M272.916,297.633v83.314l41.996-41.317L272.916,297.633z M272.916,132.641
	v83.314l41.996-41.996L272.916,132.641z"/>
<path style="fill:#FFFFFF;" d="M267.864,80.208c-4.861-4.782-12.115-6.179-18.4-3.543c-6.288,2.634-10.38,8.785-10.38,15.602
	v123.687l-54.057-54.057c-6.605-6.606-17.317-6.605-23.923,0c-6.606,6.605-6.606,17.317,0,23.923l70.554,70.556h48.682
	l70.555-70.556c3.189-3.189,4.973-7.52,4.955-12.03s-1.837-8.827-5.052-11.99L267.864,80.208z M272.916,215.955v-83.314
	l41.996,41.317L272.916,215.955z"/>
<g>
</g>
<g>
</g>
<g>
</g>
<g>
</g>
<g>
</g>
<g>
</g>
<g>
</g>
<g>
</g>
<g>
</g>
<g>
</g>
<g>
</g>
<g>
</g>
<g>
</g>
<g>
</g>
<g>
</g>
</svg>
